<?xml version="1.0" encoding="UTF-8"?>
<svg width="52px" height="42px" viewBox="0 0 52 42" version="1.1" xmlns="http://www.w3.org/2000/svg" xmlns:xlink="http://www.w3.org/1999/xlink">
    <!-- Generator: Sketch 63.1 (92452) - https://sketch.com -->
    <title>Twitter logo</title>
    <desc>Created with Sketch.</desc>
    <defs>
        <polygon id="path-1" points="0 0 51.3666667 0 51.3666667 41.3166667 0 41.3166667"></polygon>
    </defs>
    <g id="05_Templates" stroke="none" stroke-width="1" fill="none" fill-rule="evenodd">
        <g id="---Picker-Page-Option-1-Copy-2" transform="translate(-189.000000, -2565.000000)">
            <g id="Stat" transform="translate(0.000000, 2492.000000)">
                <g id="Group" transform="translate(180.000000, 60.000000)">
                    <g id="Twitter-logo" transform="translate(1.000000, 0.000000)">
                        <rect id="Rectangle" x="0" y="0" width="67" height="67"></rect>
                        <g id="Group-3" transform="translate(7.816667, 13.400000)">
                            <mask id="mask-2" fill="white">
                                <use xlink:href="#path-1"></use>
                            </mask>
                            <g id="Clip-2"></g>
                            <path d="M16.1544057,41.3166667 C10.2018309,41.3166667 4.66409333,39.5900042 0,36.6316383 C0.824948667,36.7280272 1.6636636,36.7762217 2.51388467,36.7762217 C7.4516596,36.7762217 11.9953495,35.1091414 15.6029332,32.3114236 C10.9895901,32.2264225 7.09948973,29.2109146 5.7577924,25.0670062 C6.39967027,25.1886107 7.06004013,25.2551069 7.738902,25.2551069 C8.700486,25.2551069 9.63207187,25.1265883 10.5170168,24.8882597 C5.69533053,23.9318949 2.06206347,19.7147797 2.06206347,14.6627009 C2.06206347,14.6169467 2.06206347,14.5734294 2.06452907,14.5297087 C3.48492013,15.3118007 5.10913413,15.7819507 6.83751973,15.8346189 C4.0084492,13.9658134 2.14794853,10.7713557 2.14794853,7.15270567 C2.14794853,5.24241634 2.66921747,3.45129131 3.57512,1.91028934 C8.77219387,8.22111744 16.5390393,12.3719399 25.2974669,12.8077234 C25.1168617,12.043933 25.0241963,11.2482163 25.0241963,10.4295209 C25.0241963,4.67120038 29.7439711,0 35.5644308,0 C38.5950641,0 41.3339348,1.2681035 43.2568973,3.29532028 C45.6575699,2.82761052 47.9117447,1.95848378 49.9487412,0.763790371 C49.160982,3.19913475 47.4903325,5.24241634 45.314646,6.53349862 C47.4461572,6.28113871 49.478428,5.72151381 51.3666667,4.89143067 C49.9555216,6.9829067 48.1669343,8.81978593 46.1091856,10.2918516 C46.1301432,10.7390228 46.1393892,11.1886342 46.1393892,11.6402791 C46.1393892,25.4224656 35.5389529,41.3166667 16.1544057,41.3166667" id="Fill-1" fill="#FFFFFF" mask="url(#mask-2)"></path>
                        </g>
                    </g>
                </g>
            </g>
        </g>
    </g>
</svg>